PathFileType	4	(X/Y/Z)	/Users/itak/Documents/Research/Walk-IL/dataset/trc/00385_00012.trc
DataRate	CameraRate	NumFrames	NumMarkers	Units	OrigDataRate	OrigDataStartFrame	OrigNumFrames
100.000000	100.000000	4	55	mm	100.000000	525	600
Frame#	Time	RPSI			LPSI			L3			STRN			T10			C7			CLAV			RBAK			LBAK			LSHO			LUPA			LAEL			LAOL			LWTS			LWPS			LFRA			LIFD			LHPS			LHTS			RSHO			RUPA			RAEL			RAOL			RWTS			RWPS			RFRA			RIFD			RHTS			RHPS			RBHD			LFHD			RFHD			RHIP			RASI			LKNE			LTHI			LANK			LTIP			LTOE			LMT1			LMT5			LHEE			RKNE			RANK			RTIP			RTOE			RMT1			RMT5			RHEE			LASI			LBHD			LHIP			RTHI			*53			*54			
		X1	Y1	Z1	X2	Y2	Z2	X3	Y3	Z3	X4	Y4	Z4	X5	Y5	Z5	X6	Y6	Z6	X7	Y7	Z7	X8	Y8	Z8	X9	Y9	Z9	X10	Y10	Z10	X11	Y11	Z11	X12	Y12	Z12	X13	Y13	Z13	X14	Y14	Z14	X15	Y15	Z15	X16	Y16	Z16	X17	Y17	Z17	X18	Y18	Z18	X19	Y19	Z19	X20	Y20	Z20	X21	Y21	Z21	X22	Y22	Z22	X23	Y23	Z23	X24	Y24	Z24	X25	Y25	Z25	X26	Y26	Z26	X27	Y27	Z27	X28	Y28	Z28	X29	Y29	Z29	X30	Y30	Z30	X31	Y31	Z31	X32	Y32	Z32	X33	Y33	Z33	X34	Y34	Z34	X35	Y35	Z35	X36	Y36	Z36	X37	Y37	Z37	X38	Y38	Z38	X39	Y39	Z39	X40	Y40	Z40	X41	Y41	Z41	X42	Y42	Z42	X43	Y43	Z43	X44	Y44	Z44	X45	Y45	Z45	X46	Y46	Z46	X47	Y47	Z47	X48	Y48	Z48	X49	Y49	Z49	X50	Y50	Z50	X51	Y51	Z51	X52	Y52	Z52	X53	Y53	Z53	X54	Y54	Z54	X55	Y55	Z55	

526	5.25	-1430.145874023438	986.7730102539062	-41.28573989868164	-1443.142578125	977.5153198242188	-172.0059661865234	-1443.133911132812	1054.571533203125	-104.6432037353516	-1206.580078125	1222.326171875	-116.8635330200195	-1456.396362304688	1159.848388671875	-107.3039398193359	-1423.410888671875	1409.5126953125	-115.8725280761719	-1265.993530273438	1338.495239257812	-114.8921127319336	-1457.923828125	1261.154907226562	-52.94678115844727	-1441.92431640625	1373.030151367188	-218.0653686523438	-1358.484130859375	1391.58837890625	-273.94287109375	-1391.110595703125	1272.096801757812	-336.6707153320312	-1380.406127929688	1078.936767578125	-362.2007141113281	-1420.167236328125	1054.802856445312	-290.911376953125	-1275.362670898438	870.1397094726562	-356.1825866699219	-1344.503540039062	853.5592041015625	-395.8623657226562	-1364.817993164062	975.1649169921875	-376.7019653320312	-1262.228393554688	692.904296875	-360.9168701171875	-1321.208862304688	769.3934326171875	-395.5699157714844	-1257.279663085938	776.7772216796875	-386.3428955078125	-1365.108642578125	1387.986328125	40.20547485351562	-1381.064086914062	1323.722900390625	96.07886505126953	-1403.961181640625	1064.455444335938	130.1546936035156	-1407.439086914062	1054.7607421875	34.31792449951172	-1290.19873046875	841.6303100585938	131.6766662597656	-1345.893798828125	835.6364135742188	181.0443572998047	-1388.734375	998.6902465820312	151.7861633300781	-1307.890380859375	668.7891235351562	137.5578308105469	-1285.625	736.7039794921875	156.9458160400391	-1349.286865234375	746.0943603515625	182.2339630126953	-1396.389526367188	1592.084106445312	-27.88275337219238	-1256.415771484375	1614.973388671875	-166.8531341552734	-1266.2412109375	1615.517944335938	-44.73699188232422	-1338.398315429688	964.8651123046875	67.57955169677734	-1211.638671875	978.351318359375	2.483712911605835	-1301.4326171875	477.84423828125	-280.6931457519531	-1313.76220703125	620.6336669921875	-292.4981994628906	-1425.400756835938	43.76399230957031	-255.4167175292969	-1363.086059570312	247.6948394775391	-279.8704223632812	-1217.408447265625	57.39178466796875	-187.4097442626953	-1295.75146484375	47.62713623046875	-156.5875396728516	-1297.717895507812	45.78035354614258	-261.3825073242188	-1465.538330078125	39.71913909912109	-199.4659423828125	-1297.044311523438	476.0068054199219	35.9534797668457	-1379.114013671875	60.54804611206055	12.28043174743652	-1294.718139648438	347.7776184082031	19.10715293884277	-1204.19287109375	55.55087661743164	-50.0434684753418	-1274.956909179688	48.82961273193359	-81.30390930175781	-1294.3857421875	56.1695671081543	17.95577812194824	-1452.446899414062	40.46943664550781	-38.85240173339844	-1246.638061523438	971.5862426757812	-259.3583374023438	-1400.890747070312	1588.593383789062	-189.4161071777344	-1369.09326171875	971.472900390625	-293.9833984375	-1261.523315429688	737.6675415039062	60.47600936889648	nan	nan	nan	nan	nan	nan	
527	5.26	-1431.241455078125	986.6904907226562	-42.82825088500977	-1443.953857421875	977.584716796875	-173.5458679199219	-1444.00732421875	1054.301147460938	-106.0182723999023	-1207.994506835938	1222.692260742188	-117.7291946411133	-1458.0224609375	1159.569580078125	-108.4153137207031	-1425.453979492188	1409.3720703125	-116.6778564453125	-1267.736083984375	1338.75244140625	-115.7688293457031	-1459.645874023438	1260.94189453125	-53.77863311767578	-1443.919799804688	1372.794067382812	-218.833984375	-1360.57568359375	1391.501220703125	-274.8153381347656	-1393.249633789062	1271.945556640625	-337.4614562988281	-1382.823364257812	1078.86962890625	-363.0122680664062	-1421.93701171875	1054.606811523438	-291.3882751464844	-1276.673095703125	870.4632568359375	-357.8505249023438	-1346.283447265625	853.521484375	-397.0030517578125	-1366.994506835938	975.0880126953125	-377.6711730957031	-1263.024047851562	693.253173828125	-362.6307067871094	-1322.654296875	769.458251953125	-396.8739013671875	-1258.70166015625	777.12646484375	-388.0515747070312	-1367.013549804688	1387.946411132812	39.37621307373047	-1382.7255859375	1323.542114257812	95.23644256591797	-1404.498657226562	1064.204711914062	129.3408355712891	-1408.365478515625	1054.55078125	33.61603164672852	-1289.27392578125	842.1282958984375	129.9490203857422	-1344.509399414062	835.620361328125	179.6399688720703	-1388.73681640625	998.4390258789062	150.791748046875	-1305.58544921875	669.174072265625	135.5717620849609	-1283.651489257812	737.2276000976562	155.0120239257812	-1347.265258789062	746.0905151367188	180.6659240722656	-1398.660888671875	1592.090576171875	-28.6856746673584	-1258.56884765625	1615.143432617188	-167.584228515625	-1268.46923828125	1615.590942382812	-45.50091171264648	-1339.66259765625	964.9221801757812	66.22840881347656	-1212.700439453125	978.6280517578125	1.669880747795105	-1303.916870117188	478.2321166992188	-282.3761291503906	-1315.722045898438	621.0560302734375	-293.9881591796875	-1425.524658203125	43.53350448608398	-255.693603515625	-1364.554077148438	247.7996826171875	-280.8544006347656	-1217.669799804688	57.63394165039062	-187.6724395751953	-1295.921875	47.82617950439453	-156.7636413574219	-1297.75537109375	45.54816055297852	-261.5103759765625	-1465.428833007812	39.59399032592773	-199.7340393066406	-1298.307250976562	476.2964172363281	35.7763557434082	-1378.943725585938	60.50504684448242	12.32900810241699	-1295.62744140625	348.0382080078125	19.13066482543945	-1204.006591796875	54.98856735229492	-49.79047393798828	-1274.697631835938	48.46438980102539	-81.17280578613281	-1294.405395507812	55.80488967895508	18.10293388366699	-1452.223022460938	40.61323165893555	-38.93881988525391	-1247.345947265625	971.7472534179688	-260.2018432617188	-1402.973999023438	1588.709594726562	-190.3072357177734	-1369.910400390625	971.2935791015625	-294.5460815429688	-1263.009521484375	737.9341430664062	59.79922103881836	nan	nan	nan	nan	nan	nan	
528	5.27	-1432.2998046875	986.6213989257812	-44.30542755126953	-1444.733642578125	977.6993408203125	-175.0175170898438	-1444.82373046875	1054.02978515625	-107.3691635131836	-1209.382202148438	1223.015869140625	-118.4918670654297	-1459.569580078125	1159.29052734375	-109.5343017578125	-1427.411987304688	1409.21435546875	-117.4874267578125	-1269.402221679688	1338.9873046875	-116.5838928222656	-1461.297119140625	1260.707885742188	-54.63857650756836	-1445.789184570312	1372.541259765625	-219.6217803955078	-1362.503295898438	1391.39208984375	-275.6588745117188	-1395.204467773438	1271.76318359375	-338.2478637695312	-1385.093994140625	1078.795166015625	-363.8119812011719	-1423.523315429688	1054.38330078125	-291.8532104492188	-1277.9697265625	870.7077026367188	-359.6295471191406	-1348.124389648438	853.4306030273438	-398.1449890136719	-1369.09423828125	974.9871215820312	-378.646728515625	-1263.89501953125	693.5125122070312	-364.5408020019531	-1324.202514648438	769.4669189453125	-398.2469177246094	-1260.222778320312	777.3732299804688	-389.9321594238281	-1368.914794921875	1387.878540039062	38.5718879699707	-1384.409423828125	1323.323608398438	94.39767456054688	-1405.003784179688	1063.91259765625	128.5439605712891	-1409.19873046875	1054.287109375	32.91040420532227	-1288.220336914062	842.6666259765625	128.2975006103516	-1343.012817382812	835.624755859375	178.2845458984375	-1388.667724609375	998.1451416015625	149.8171997070312	-1303.0537109375	669.5862426757812	133.7167205810547	-1281.49169921875	737.81494140625	153.1686248779297	-1345.05712890625	746.1021728515625	179.1724395751953	-1400.87353515625	1592.07421875	-29.55598449707031	-1260.614501953125	1615.28662109375	-168.2687072753906	-1270.638549804688	1615.6435546875	-46.21443557739258	-1340.871948242188	964.9383544921875	64.90293121337891	-1213.730102539062	978.8699340820312	0.873775839805603	-1306.341186523438	478.5904846191406	-283.9311218261719	-1317.626831054688	621.4385375976562	-295.3780212402344	-1425.615966796875	43.32621765136719	-255.9216918945312	-1365.982421875	247.8857727050781	-281.7386474609375	-1217.900756835938	57.84397506713867	-187.9088134765625	-1296.062744140625	48.01441192626953	-156.9094390869141	-1297.798828125	45.36856460571289	-261.6189880371094	-1465.33740234375	39.47542190551758	-199.9405364990234	-1299.439575195312	476.5440368652344	35.50896835327148	-1378.77197265625	60.50363159179688	12.34755992889404	-1296.442626953125	348.2708740234375	19.03546524047852	-1203.840576171875	54.52524566650391	-49.6159782409668	-1274.468872070312	48.13856887817383	-81.11564636230469	-1294.416870117188	55.52512741088867	18.18830299377441	-1452.026977539062	40.75487518310547	-39.04729461669922	-1248.115234375	971.8643188476562	-260.9944458007812	-1404.924682617188	1588.78857421875	-191.2138519287109	-1370.783935546875	971.0786743164062	-295.0676879882812	-1264.335327148438	738.1798095703125	59.09461212158203	nan	nan	nan	nan	nan	nan	
529	5.28	-1433.309448242188	986.584228515625	-45.68401336669922	-1445.492919921875	977.8679809570312	-176.3914947509766	-1445.605346679688	1053.7685546875	-108.6664199829102	-1210.754028320312	1223.301635742188	-119.1636505126953	-1461.01904296875	1159.0185546875	-110.6377410888672	-1429.286376953125	1409.045166015625	-118.2985916137695	-1270.999633789062	1339.198852539062	-117.3461608886719	-1462.878662109375	1260.458862304688	-55.51997375488281	-1447.540405273438	1372.284912109375	-220.4268035888672	-1364.279296875	1391.276733398438	-276.4722595214844	-1396.97705078125	1271.569946289062	-339.0377197265625	-1387.189208984375	1078.727416992188	-364.6004943847656	-1424.9267578125	1054.15234375	-292.3196716308594	-1279.2802734375	870.8709716796875	-361.4979248046875	-1350.011840820312	853.3009643554688	-399.279052734375	-1371.09814453125	974.8814086914062	-379.6284790039062	-1264.856079101562	693.686279296875	-366.6261596679688	-1325.850341796875	769.433349609375	-399.6760559082031	-1261.838012695312	777.5235595703125	-391.9576110839844	-1370.807983398438	1387.789306640625	37.79012298583984	-1386.107055664062	1323.0791015625	93.56536102294922	-1405.48681640625	1063.588745117188	127.7420501708984	-1409.947265625	1053.983520507812	32.17180633544922	-1287.052368164062	843.2505493164062	126.7379837036133	-1341.439819335938	835.65771484375	176.9750671386719	-1388.551513671875	997.8243408203125	148.853271484375	-1300.318237304688	670.036376953125	132.0126647949219	-1279.184936523438	738.4667358398438	151.4401397705078	-1342.69580078125	746.13427734375	177.7587890625	-1403.03271484375	1592.04443359375	-30.48933982849121	-1262.543579101562	1615.399291992188	-168.8954620361328	-1272.754272460938	1615.676513671875	-46.87071228027344	-1342	964.9134521484375	63.62179946899414	-1214.726806640625	979.0816040039062	0.08312961459159851	-1308.681396484375	478.9093933105469	-285.3432922363281	-1319.46826171875	621.778076171875	-296.6583862304688	-1425.68212890625	43.14933776855469	-256.0979919433594	-1367.341796875	247.9427032470703	-282.5081176757812	-1218.091552734375	58.02470779418945	-188.1074676513672	-1296.174194335938	48.18954467773438	-157.0207824707031	-1297.845336914062	45.24109649658203	-261.7078247070312	-1465.276245117188	39.37381744384766	-200.0888977050781	-1300.44189453125	476.7563171386719	35.14515686035156	-1378.618896484375	60.54293441772461	12.3336009979248	-1297.156982421875	348.49462890625	18.82760238647461	-1203.704956054688	54.17514419555664	-49.51608657836914	-1274.28173828125	47.86279678344727	-81.12837219238281	-1294.408813476562	55.34368133544922	18.20911598205566	-1451.872924804688	40.89145660400391	-39.17363739013672	-1248.897827148438	971.9767456054688	-261.7636413574219	-1406.743896484375	1588.832397460938	-192.1354064941406	-1371.659545898438	970.8754272460938	-295.5849914550781	-1265.510375976562	738.3934326171875	58.36152648925781	nan	nan	nan	nan	nan	nan	
